<svg xmlns="http://www.w3.org/2000/svg" width="130" height="198" viewBox="0 0 130 198">
  <g id="Group_73" data-name="Group 73" transform="translate(-6156 -4898)">
    <path id="Polygon_4" data-name="Polygon 4" d="M91.044,10.447a10,10,0,0,1,15.911,0l78.815,103.495A10,10,0,0,1,177.815,130H20.185a10,10,0,0,1-7.956-16.059Z" transform="translate(6156 5096) rotate(-90)" fill="#008aac"/>
    <path id="Polygon_5" data-name="Polygon 5" d="M61.064,10.351a10,10,0,0,1,15.872,0l48.733,63.564A10,10,0,0,1,117.733,90H20.267a10,10,0,0,1-7.936-16.084Z" transform="translate(6182 5066) rotate(-90)" fill="#00a2cb"/>
  </g>
</svg>
