<svg xmlns="http://www.w3.org/2000/svg" width="204.958" height="195.21" viewBox="0 0 204.958 195.21">
  <path id="iconmonstr-star-filled" d="M92.87,6.623a7.358,7.358,0,0,1,13.218,0C115.583,26.1,131.92,59.652,131.92,59.652s37.149,5.108,58.7,8.081a7.3,7.3,0,0,1,6.336,7.282,7.175,7.175,0,0,1-2.252,5.225c-15.694,14.992-42.715,40.854-42.715,40.854s6.6,36.72,10.421,58.02a7.34,7.34,0,0,1-10.693,7.73c-19.184-10.216-52.239-27.791-52.239-27.791S66.424,176.627,47.24,186.843a7.34,7.34,0,0,1-10.693-7.73c3.831-21.3,10.43-58.02,10.43-58.02S19.946,95.232,4.262,80.24A7.143,7.143,0,0,1,2,75.025a7.312,7.312,0,0,1,6.346-7.291C29.9,64.76,67.038,59.652,67.038,59.652S83.385,26.1,92.87,6.623Z" transform="translate(3 2.5)" fill="none" stroke="#ffc107" stroke-width="10"/>
</svg>
